<svg width="13" height="12" viewBox="0 0 13 12" fill="none" xmlns="http://www.w3.org/2000/svg">
<path d="M6.06277 10.9408L3.86277 11.8408C3.36277 12.0408 2.76277 11.8408 2.56277 11.3408C2.46277 11.1408 2.46277 11.0408 2.46277 10.8408L2.66277 8.44082C2.66277 8.14082 2.56277 7.94082 2.46277 7.74082L0.86277 5.94082C0.56277 5.54082 0.56277 4.84082 0.96277 4.54082C1.16277 4.44082 1.26277 4.34082 1.46277 4.34082L3.76277 3.84082C4.06277 3.74082 4.26277 3.64082 4.36277 3.34082L5.56277 1.34082C5.86277 0.84082 6.46277 0.74082 6.96277 1.04082C7.06277 1.14082 7.26277 1.24082 7.26277 1.34082L8.46277 3.34082C8.56277 3.54082 8.86277 3.74082 9.06277 3.84082L11.4628 4.34082C11.9628 4.44082 12.3628 5.04082 12.1628 5.54082C12.1628 5.74082 12.0628 5.84082 11.9628 5.94082L10.4628 7.74082C10.2628 7.94082 10.1628 8.24082 10.2628 8.44082L10.4628 10.8408C10.4628 11.4408 10.0628 11.8408 9.56277 11.9408C9.36277 11.9408 9.26277 11.9408 9.06277 11.8408L6.86277 10.9408C6.56277 10.8408 6.36277 10.8408 6.06277 10.9408Z" fill="url(#paint0_linear)"/>
<defs>
<linearGradient id="paint0_linear" x1="7.01047" y1="-0.870233" x2="7.60813" y2="18.7395" gradientUnits="userSpaceOnUse">
<stop stop-color="#FD749B"/>
<stop offset="1" stop-color="#281AC8"/>
</linearGradient>
</defs>
</svg>
