<svg width="59" height="59" viewBox="0 0 59 59" fill="none" xmlns="http://www.w3.org/2000/svg">
<g clip-path="url(#clip0)">
<path d="M29.0488 0.358317C13.0315 0.344837 0.0398582 13.3186 0.0263777 29.3359C0.0128972 45.3532 12.9867 58.3448 29.004 58.3583C45.0191 58.3448 58.0017 45.3735 58.0264 29.3583C58.0264 13.35 45.0572 0.371798 29.0488 0.358317ZM29.004 53.5325C15.6532 53.5325 4.82984 42.7091 4.82984 29.3583C4.82984 16.0076 15.6532 5.18421 29.004 5.18421C42.3502 5.19769 53.1646 16.0121 53.1781 29.3583C53.1781 42.7091 42.3547 53.5325 29.004 53.5325Z" fill="url(#paint0_linear)"/>
<path d="M36.8373 27.9442C38.7767 26.851 39.8249 24.6626 39.4635 22.4673C39.0146 19.0781 34.9744 17.7986 31.787 17.5293V12.4341H28.6446V17.4844H26.5347V12.4341H23.3923V17.4844H17.0625V20.7391H19.4193C20.4743 20.7391 20.9905 21.0534 20.9905 21.9063V35.89C20.9905 37.0572 20.4069 37.4164 19.7784 37.4164H17.3767V40.7384H23.482V45.9009H26.6469V40.7384H28.7568V45.9009H31.8319V40.7384H32.5052C38.9696 40.7384 41.1245 37.5735 41.1245 33.264C41.0728 30.7229 39.3108 28.5367 36.8373 27.9442ZM26.5346 20.9411H28.7792C30.3504 20.9411 33.448 21.2105 33.448 23.7693C33.5557 25.4393 32.3458 26.9028 30.6871 27.1137H26.5346V20.9411ZM30.0137 37.102V37.0796H26.5346V30.3458H30.5749C31.5176 30.3458 35.064 30.6601 35.064 33.174C35.064 35.6879 33.3807 37.102 30.0137 37.102Z" fill="url(#paint1_linear)"/>
</g>
<defs>
<linearGradient id="paint0_linear" x1="31.9264" y1="-8.77133" x2="35.1986" y2="93.9744" gradientUnits="userSpaceOnUse">
<stop stop-color="#FD749B"/>
<stop offset="1" stop-color="#281AC8"/>
</linearGradient>
<linearGradient id="paint1_linear" x1="30.2966" y1="7.16622" x2="32.9202" y2="66.3958" gradientUnits="userSpaceOnUse">
<stop stop-color="#FD749B"/>
<stop offset="1" stop-color="#281AC8"/>
</linearGradient>
<clipPath id="clip0">
<rect width="58" height="58" fill="white" transform="translate(0.0263672 0.358398)"/>
</clipPath>
</defs>
</svg>
