<svg width="145" height="33" viewBox="0 0 145 33" fill="none" xmlns="http://www.w3.org/2000/svg">
<mask id="path-1-outside-1" maskUnits="userSpaceOnUse" x="46.5674" y="11.5891" width="98" height="18" fill="black">
<rect fill="white" x="46.5674" y="11.5891" width="98" height="18"/>
<path d="M47.5674 21.0943C47.5674 19.6905 47.8858 18.4312 48.5227 17.3165C49.1596 16.188 50.0249 15.3072 51.1187 14.6741C52.2263 14.041 53.4516 13.7245 54.7946 13.7245C56.373 13.7245 57.7506 14.103 58.9274 14.8599C60.1043 15.6168 60.9627 16.6903 61.5026 18.0803H59.2389C58.8374 17.2133 58.2559 16.5458 57.4944 16.0779C56.7468 15.61 55.8468 15.376 54.7946 15.376C53.7839 15.376 52.877 15.61 52.074 16.0779C51.271 16.5458 50.641 17.2133 50.1841 18.0803C49.7272 18.9336 49.4988 19.9382 49.4988 21.0943C49.4988 22.2365 49.7272 23.2412 50.1841 24.1082C50.641 24.9615 51.271 25.6221 52.074 26.09C52.877 26.5579 53.7839 26.7919 54.7946 26.7919C55.8468 26.7919 56.7468 26.5648 57.4944 26.1106C58.2559 25.6427 58.8374 24.9753 59.2389 24.1082H61.5026C60.9627 25.4845 60.1043 26.551 58.9274 27.308C57.7506 28.0511 56.373 28.4227 54.7946 28.4227C53.4516 28.4227 52.2263 28.1131 51.1187 27.4938C50.0249 26.8607 49.1596 25.9868 48.5227 24.872C47.8858 23.7573 47.5674 22.498 47.5674 21.0943Z"/>
<path d="M69.2794 28.4847C68.2133 28.4847 67.2441 28.2438 66.3719 27.7621C65.5135 27.2805 64.8351 26.5992 64.3366 25.7184C63.852 24.8239 63.6097 23.7917 63.6097 22.6219C63.6097 21.4658 63.859 20.4474 64.3574 19.5666C64.8697 18.6721 65.5619 17.9908 66.4342 17.5229C67.3064 17.0412 68.2825 16.8004 69.3624 16.8004C70.4424 16.8004 71.4185 17.0412 72.2907 17.5229C73.163 17.9908 73.8483 18.6652 74.3467 19.546C74.859 20.4268 75.1151 21.4521 75.1151 22.6219C75.1151 23.7917 74.8521 24.8239 74.326 25.7184C73.8137 26.5992 73.1145 27.2805 72.2284 27.7621C71.3423 28.2438 70.3593 28.4847 69.2794 28.4847ZM69.2794 26.8332C69.9578 26.8332 70.5947 26.6749 71.19 26.3584C71.7854 26.0418 72.263 25.567 72.623 24.934C72.9968 24.3009 73.1837 23.5302 73.1837 22.6219C73.1837 21.7136 73.0037 20.9429 72.6438 20.3098C72.2838 19.6767 71.8131 19.2088 71.2316 18.906C70.6501 18.5895 70.0201 18.4312 69.3417 18.4312C68.6494 18.4312 68.0125 18.5895 67.431 18.906C66.8634 19.2088 66.4065 19.6767 66.0604 20.3098C65.7142 20.9429 65.5412 21.7136 65.5412 22.6219C65.5412 23.544 65.7073 24.3215 66.0396 24.9546C66.3857 25.5877 66.8426 26.0625 67.4103 26.379C67.9779 26.6818 68.601 26.8332 69.2794 26.8332Z"/>
<path d="M78.5761 15.1489C78.2161 15.1489 77.9115 15.0251 77.6623 14.7773C77.4131 14.5296 77.2885 14.2268 77.2885 13.869C77.2885 13.5112 77.4131 13.2084 77.6623 12.9607C77.9115 12.713 78.2161 12.5891 78.5761 12.5891C78.9222 12.5891 79.213 12.713 79.4483 12.9607C79.6975 13.2084 79.8222 13.5112 79.8222 13.869C79.8222 14.2268 79.6975 14.5296 79.4483 14.7773C79.213 15.0251 78.9222 15.1489 78.5761 15.1489ZM79.4899 16.9862V28.2989H77.6V16.9862H79.4899Z"/>
<path d="M88.2559 16.7798C89.6404 16.7798 90.7618 17.1995 91.6202 18.039C92.4786 18.8648 92.9079 20.0621 92.9079 21.631V28.2989H91.0387V21.8994C91.0387 20.7708 90.7549 19.9107 90.1873 19.3189C89.6196 18.7134 88.8443 18.4106 87.8613 18.4106C86.8644 18.4106 86.0683 18.7203 85.473 19.3396C84.8915 19.9589 84.6007 20.8603 84.6007 22.0439V28.2989H82.7108V16.9862H84.6007V18.5964C84.9745 18.0184 85.4799 17.5711 86.1168 17.2546C86.7675 16.938 87.4805 16.7798 88.2559 16.7798Z"/>
<path d="M103.243 20.8878C103.769 20.9704 104.247 21.1837 104.676 21.5278C105.119 21.8718 105.465 22.2985 105.714 22.8077C105.977 23.3169 106.109 23.8605 106.109 24.4385C106.109 25.1679 105.922 25.8285 105.548 26.4203C105.174 26.9983 104.627 27.4594 103.908 27.8034C103.201 28.1337 102.364 28.2989 101.395 28.2989H95.995V13.9103H101.187C102.17 13.9103 103.008 14.0754 103.7 14.4057C104.392 14.7223 104.911 15.1558 105.257 15.7063C105.604 16.2568 105.777 16.8761 105.777 17.5642C105.777 18.4175 105.541 19.1262 105.071 19.6905C104.614 20.241 104.004 20.6401 103.243 20.8878ZM97.8848 20.124H101.062C101.948 20.124 102.634 19.9176 103.118 19.5047C103.603 19.0918 103.845 18.5207 103.845 17.7913C103.845 17.0619 103.603 16.4907 103.118 16.0779C102.634 15.665 101.935 15.4586 101.021 15.4586H97.8848V20.124ZM101.228 26.7506C102.17 26.7506 102.904 26.5304 103.43 26.09C103.956 25.6496 104.219 25.0372 104.219 24.2527C104.219 23.4545 103.942 22.8283 103.388 22.3742C102.835 21.9062 102.094 21.6723 101.166 21.6723H97.8848V26.7506H101.228Z"/>
<path d="M108.025 22.6012C108.025 21.4452 108.261 20.4337 108.732 19.5666C109.202 18.6858 109.846 18.0046 110.663 17.5229C111.494 17.0412 112.414 16.8004 113.425 16.8004C114.422 16.8004 115.287 17.0137 116.021 17.4404C116.755 17.867 117.302 18.4037 117.662 19.0505V16.9862H119.572V28.2989H117.662V26.1932C117.288 26.8538 116.727 27.4043 115.979 27.8447C115.246 28.2713 114.387 28.4847 113.404 28.4847C112.394 28.4847 111.48 28.2369 110.663 27.7415C109.846 27.246 109.202 26.551 108.732 25.6565C108.261 24.7619 108.025 23.7435 108.025 22.6012ZM117.662 22.6219C117.662 21.7686 117.489 21.0254 117.142 20.3924C116.796 19.7593 116.326 19.2776 115.73 18.9473C115.149 18.6033 114.505 18.4312 113.799 18.4312C113.093 18.4312 112.449 18.5964 111.867 18.9267C111.286 19.257 110.822 19.7387 110.476 20.3717C110.13 21.0048 109.957 21.748 109.957 22.6012C109.957 23.4683 110.13 24.2252 110.476 24.872C110.822 25.5051 111.286 25.9937 111.867 26.3377C112.449 26.668 113.093 26.8332 113.799 26.8332C114.505 26.8332 115.149 26.668 115.73 26.3377C116.326 25.9937 116.796 25.5051 117.142 24.872C117.489 24.2252 117.662 23.4752 117.662 22.6219Z"/>
<path d="M126.795 28.4847C125.923 28.4847 125.141 28.3402 124.448 28.0511C123.756 27.7484 123.209 27.3355 122.808 26.8125C122.406 26.2758 122.185 25.6634 122.143 24.9753H124.095C124.151 25.5395 124.414 26.0005 124.884 26.3584C125.369 26.7162 125.999 26.8951 126.774 26.8951C127.494 26.8951 128.062 26.7368 128.477 26.4203C128.893 26.1038 129.1 25.7047 129.1 25.223C129.1 24.7275 128.879 24.3628 128.436 24.1289C127.993 23.8811 127.307 23.6403 126.38 23.4063C125.535 23.1861 124.843 22.9659 124.303 22.7457C123.777 22.5118 123.32 22.1746 122.932 21.7342C122.558 21.2801 122.371 20.6883 122.371 19.9589C122.371 19.3808 122.545 18.851 122.891 18.3693C123.237 17.8876 123.728 17.5092 124.365 17.2339C125.002 16.9449 125.729 16.8004 126.546 16.8004C127.806 16.8004 128.823 17.1169 129.599 17.75C130.374 18.3831 130.789 19.2501 130.845 20.3511H128.955C128.913 19.7593 128.671 19.2845 128.228 18.9267C127.799 18.5689 127.217 18.39 126.483 18.39C125.805 18.39 125.265 18.5345 124.864 18.8235C124.462 19.1125 124.261 19.4909 124.261 19.9589C124.261 20.3305 124.379 20.6401 124.614 20.8878C124.864 21.1218 125.168 21.3145 125.528 21.4658C125.902 21.6035 126.414 21.7617 127.065 21.9406C127.882 22.1608 128.546 22.381 129.059 22.6012C129.571 22.8077 130.007 23.1242 130.367 23.5508C130.741 23.9775 130.935 24.5349 130.949 25.223C130.949 25.8423 130.776 26.3997 130.429 26.8951C130.083 27.3906 129.592 27.7828 128.955 28.0718C128.332 28.347 127.612 28.4847 126.795 28.4847Z"/>
<path d="M144 22.209C144 22.5668 143.98 22.9453 143.938 23.3444H134.842C134.911 24.4592 135.292 25.3331 135.984 25.9661C136.69 26.5855 137.542 26.8951 138.538 26.8951C139.355 26.8951 140.034 26.7093 140.574 26.3377C141.127 25.9524 141.515 25.4432 141.737 24.8101H143.772C143.467 25.8973 142.858 26.785 141.944 27.4731C141.031 28.1475 139.895 28.4847 138.538 28.4847C137.458 28.4847 136.489 28.2438 135.631 27.7621C134.786 27.2805 134.122 26.5992 133.637 25.7184C133.153 24.8239 132.91 23.7917 132.91 22.6219C132.91 21.4521 133.146 20.4268 133.616 19.546C134.087 18.6652 134.745 17.9908 135.589 17.5229C136.448 17.0412 137.431 16.8004 138.538 16.8004C139.618 16.8004 140.574 17.0344 141.404 17.5023C142.235 17.9702 142.872 18.617 143.315 19.4428C143.772 20.2548 144 21.1768 144 22.209ZM142.048 21.8168C142.048 21.1011 141.889 20.4887 141.571 19.9795C141.252 19.4565 140.816 19.0643 140.262 18.8028C139.722 18.5276 139.12 18.39 138.455 18.39C137.5 18.39 136.683 18.6927 136.005 19.2983C135.34 19.9038 134.959 20.7433 134.863 21.8168H142.048Z"/>
</mask>
<path d="M47.5674 21.0943C47.5674 19.6905 47.8858 18.4312 48.5227 17.3165C49.1596 16.188 50.0249 15.3072 51.1187 14.6741C52.2263 14.041 53.4516 13.7245 54.7946 13.7245C56.373 13.7245 57.7506 14.103 58.9274 14.8599C60.1043 15.6168 60.9627 16.6903 61.5026 18.0803H59.2389C58.8374 17.2133 58.2559 16.5458 57.4944 16.0779C56.7468 15.61 55.8468 15.376 54.7946 15.376C53.7839 15.376 52.877 15.61 52.074 16.0779C51.271 16.5458 50.641 17.2133 50.1841 18.0803C49.7272 18.9336 49.4988 19.9382 49.4988 21.0943C49.4988 22.2365 49.7272 23.2412 50.1841 24.1082C50.641 24.9615 51.271 25.6221 52.074 26.09C52.877 26.5579 53.7839 26.7919 54.7946 26.7919C55.8468 26.7919 56.7468 26.5648 57.4944 26.1106C58.2559 25.6427 58.8374 24.9753 59.2389 24.1082H61.5026C60.9627 25.4845 60.1043 26.551 58.9274 27.308C57.7506 28.0511 56.373 28.4227 54.7946 28.4227C53.4516 28.4227 52.2263 28.1131 51.1187 27.4938C50.0249 26.8607 49.1596 25.9868 48.5227 24.872C47.8858 23.7573 47.5674 22.498 47.5674 21.0943Z" fill="#5C5C5C"/>
<path d="M69.2794 28.4847C68.2133 28.4847 67.2441 28.2438 66.3719 27.7621C65.5135 27.2805 64.8351 26.5992 64.3366 25.7184C63.852 24.8239 63.6097 23.7917 63.6097 22.6219C63.6097 21.4658 63.859 20.4474 64.3574 19.5666C64.8697 18.6721 65.5619 17.9908 66.4342 17.5229C67.3064 17.0412 68.2825 16.8004 69.3624 16.8004C70.4424 16.8004 71.4185 17.0412 72.2907 17.5229C73.163 17.9908 73.8483 18.6652 74.3467 19.546C74.859 20.4268 75.1151 21.4521 75.1151 22.6219C75.1151 23.7917 74.8521 24.8239 74.326 25.7184C73.8137 26.5992 73.1145 27.2805 72.2284 27.7621C71.3423 28.2438 70.3593 28.4847 69.2794 28.4847ZM69.2794 26.8332C69.9578 26.8332 70.5947 26.6749 71.19 26.3584C71.7854 26.0418 72.263 25.567 72.623 24.934C72.9968 24.3009 73.1837 23.5302 73.1837 22.6219C73.1837 21.7136 73.0037 20.9429 72.6438 20.3098C72.2838 19.6767 71.8131 19.2088 71.2316 18.906C70.6501 18.5895 70.0201 18.4312 69.3417 18.4312C68.6494 18.4312 68.0125 18.5895 67.431 18.906C66.8634 19.2088 66.4065 19.6767 66.0604 20.3098C65.7142 20.9429 65.5412 21.7136 65.5412 22.6219C65.5412 23.544 65.7073 24.3215 66.0396 24.9546C66.3857 25.5877 66.8426 26.0625 67.4103 26.379C67.9779 26.6818 68.601 26.8332 69.2794 26.8332Z" fill="#5C5C5C"/>
<path d="M78.5761 15.1489C78.2161 15.1489 77.9115 15.0251 77.6623 14.7773C77.4131 14.5296 77.2885 14.2268 77.2885 13.869C77.2885 13.5112 77.4131 13.2084 77.6623 12.9607C77.9115 12.713 78.2161 12.5891 78.5761 12.5891C78.9222 12.5891 79.213 12.713 79.4483 12.9607C79.6975 13.2084 79.8222 13.5112 79.8222 13.869C79.8222 14.2268 79.6975 14.5296 79.4483 14.7773C79.213 15.0251 78.9222 15.1489 78.5761 15.1489ZM79.4899 16.9862V28.2989H77.6V16.9862H79.4899Z" fill="#5C5C5C"/>
<path d="M88.2559 16.7798C89.6404 16.7798 90.7618 17.1995 91.6202 18.039C92.4786 18.8648 92.9079 20.0621 92.9079 21.631V28.2989H91.0387V21.8994C91.0387 20.7708 90.7549 19.9107 90.1873 19.3189C89.6196 18.7134 88.8443 18.4106 87.8613 18.4106C86.8644 18.4106 86.0683 18.7203 85.473 19.3396C84.8915 19.9589 84.6007 20.8603 84.6007 22.0439V28.2989H82.7108V16.9862H84.6007V18.5964C84.9745 18.0184 85.4799 17.5711 86.1168 17.2546C86.7675 16.938 87.4805 16.7798 88.2559 16.7798Z" fill="#5C5C5C"/>
<path d="M103.243 20.8878C103.769 20.9704 104.247 21.1837 104.676 21.5278C105.119 21.8718 105.465 22.2985 105.714 22.8077C105.977 23.3169 106.109 23.8605 106.109 24.4385C106.109 25.1679 105.922 25.8285 105.548 26.4203C105.174 26.9983 104.627 27.4594 103.908 27.8034C103.201 28.1337 102.364 28.2989 101.395 28.2989H95.995V13.9103H101.187C102.17 13.9103 103.008 14.0754 103.7 14.4057C104.392 14.7223 104.911 15.1558 105.257 15.7063C105.604 16.2568 105.777 16.8761 105.777 17.5642C105.777 18.4175 105.541 19.1262 105.071 19.6905C104.614 20.241 104.004 20.6401 103.243 20.8878ZM97.8848 20.124H101.062C101.948 20.124 102.634 19.9176 103.118 19.5047C103.603 19.0918 103.845 18.5207 103.845 17.7913C103.845 17.0619 103.603 16.4907 103.118 16.0779C102.634 15.665 101.935 15.4586 101.021 15.4586H97.8848V20.124ZM101.228 26.7506C102.17 26.7506 102.904 26.5304 103.43 26.09C103.956 25.6496 104.219 25.0372 104.219 24.2527C104.219 23.4545 103.942 22.8283 103.388 22.3742C102.835 21.9062 102.094 21.6723 101.166 21.6723H97.8848V26.7506H101.228Z" fill="#5C5C5C"/>
<path d="M108.025 22.6012C108.025 21.4452 108.261 20.4337 108.732 19.5666C109.202 18.6858 109.846 18.0046 110.663 17.5229C111.494 17.0412 112.414 16.8004 113.425 16.8004C114.422 16.8004 115.287 17.0137 116.021 17.4404C116.755 17.867 117.302 18.4037 117.662 19.0505V16.9862H119.572V28.2989H117.662V26.1932C117.288 26.8538 116.727 27.4043 115.979 27.8447C115.246 28.2713 114.387 28.4847 113.404 28.4847C112.394 28.4847 111.48 28.2369 110.663 27.7415C109.846 27.246 109.202 26.551 108.732 25.6565C108.261 24.7619 108.025 23.7435 108.025 22.6012ZM117.662 22.6219C117.662 21.7686 117.489 21.0254 117.142 20.3924C116.796 19.7593 116.326 19.2776 115.73 18.9473C115.149 18.6033 114.505 18.4312 113.799 18.4312C113.093 18.4312 112.449 18.5964 111.867 18.9267C111.286 19.257 110.822 19.7387 110.476 20.3717C110.13 21.0048 109.957 21.748 109.957 22.6012C109.957 23.4683 110.13 24.2252 110.476 24.872C110.822 25.5051 111.286 25.9937 111.867 26.3377C112.449 26.668 113.093 26.8332 113.799 26.8332C114.505 26.8332 115.149 26.668 115.73 26.3377C116.326 25.9937 116.796 25.5051 117.142 24.872C117.489 24.2252 117.662 23.4752 117.662 22.6219Z" fill="#5C5C5C"/>
<path d="M126.795 28.4847C125.923 28.4847 125.141 28.3402 124.448 28.0511C123.756 27.7484 123.209 27.3355 122.808 26.8125C122.406 26.2758 122.185 25.6634 122.143 24.9753H124.095C124.151 25.5395 124.414 26.0005 124.884 26.3584C125.369 26.7162 125.999 26.8951 126.774 26.8951C127.494 26.8951 128.062 26.7368 128.477 26.4203C128.893 26.1038 129.1 25.7047 129.1 25.223C129.1 24.7275 128.879 24.3628 128.436 24.1289C127.993 23.8811 127.307 23.6403 126.38 23.4063C125.535 23.1861 124.843 22.9659 124.303 22.7457C123.777 22.5118 123.32 22.1746 122.932 21.7342C122.558 21.2801 122.371 20.6883 122.371 19.9589C122.371 19.3808 122.545 18.851 122.891 18.3693C123.237 17.8876 123.728 17.5092 124.365 17.2339C125.002 16.9449 125.729 16.8004 126.546 16.8004C127.806 16.8004 128.823 17.1169 129.599 17.75C130.374 18.3831 130.789 19.2501 130.845 20.3511H128.955C128.913 19.7593 128.671 19.2845 128.228 18.9267C127.799 18.5689 127.217 18.39 126.483 18.39C125.805 18.39 125.265 18.5345 124.864 18.8235C124.462 19.1125 124.261 19.4909 124.261 19.9589C124.261 20.3305 124.379 20.6401 124.614 20.8878C124.864 21.1218 125.168 21.3145 125.528 21.4658C125.902 21.6035 126.414 21.7617 127.065 21.9406C127.882 22.1608 128.546 22.381 129.059 22.6012C129.571 22.8077 130.007 23.1242 130.367 23.5508C130.741 23.9775 130.935 24.5349 130.949 25.223C130.949 25.8423 130.776 26.3997 130.429 26.8951C130.083 27.3906 129.592 27.7828 128.955 28.0718C128.332 28.347 127.612 28.4847 126.795 28.4847Z" fill="#5C5C5C"/>
<path d="M144 22.209C144 22.5668 143.98 22.9453 143.938 23.3444H134.842C134.911 24.4592 135.292 25.3331 135.984 25.9661C136.69 26.5855 137.542 26.8951 138.538 26.8951C139.355 26.8951 140.034 26.7093 140.574 26.3377C141.127 25.9524 141.515 25.4432 141.737 24.8101H143.772C143.467 25.8973 142.858 26.785 141.944 27.4731C141.031 28.1475 139.895 28.4847 138.538 28.4847C137.458 28.4847 136.489 28.2438 135.631 27.7621C134.786 27.2805 134.122 26.5992 133.637 25.7184C133.153 24.8239 132.91 23.7917 132.91 22.6219C132.91 21.4521 133.146 20.4268 133.616 19.546C134.087 18.6652 134.745 17.9908 135.589 17.5229C136.448 17.0412 137.431 16.8004 138.538 16.8004C139.618 16.8004 140.574 17.0344 141.404 17.5023C142.235 17.9702 142.872 18.617 143.315 19.4428C143.772 20.2548 144 21.1768 144 22.209ZM142.048 21.8168C142.048 21.1011 141.889 20.4887 141.571 19.9795C141.252 19.4565 140.816 19.0643 140.262 18.8028C139.722 18.5276 139.12 18.39 138.455 18.39C137.5 18.39 136.683 18.6927 136.005 19.2983C135.34 19.9038 134.959 20.7433 134.863 21.8168H142.048Z" fill="#5C5C5C"/>
<path d="M47.5674 21.0943C47.5674 19.6905 47.8858 18.4312 48.5227 17.3165C49.1596 16.188 50.0249 15.3072 51.1187 14.6741C52.2263 14.041 53.4516 13.7245 54.7946 13.7245C56.373 13.7245 57.7506 14.103 58.9274 14.8599C60.1043 15.6168 60.9627 16.6903 61.5026 18.0803H59.2389C58.8374 17.2133 58.2559 16.5458 57.4944 16.0779C56.7468 15.61 55.8468 15.376 54.7946 15.376C53.7839 15.376 52.877 15.61 52.074 16.0779C51.271 16.5458 50.641 17.2133 50.1841 18.0803C49.7272 18.9336 49.4988 19.9382 49.4988 21.0943C49.4988 22.2365 49.7272 23.2412 50.1841 24.1082C50.641 24.9615 51.271 25.6221 52.074 26.09C52.877 26.5579 53.7839 26.7919 54.7946 26.7919C55.8468 26.7919 56.7468 26.5648 57.4944 26.1106C58.2559 25.6427 58.8374 24.9753 59.2389 24.1082H61.5026C60.9627 25.4845 60.1043 26.551 58.9274 27.308C57.7506 28.0511 56.373 28.4227 54.7946 28.4227C53.4516 28.4227 52.2263 28.1131 51.1187 27.4938C50.0249 26.8607 49.1596 25.9868 48.5227 24.872C47.8858 23.7573 47.5674 22.498 47.5674 21.0943Z" stroke="#5C5C5C" mask="url(#path-1-outside-1)"/>
<path d="M69.2794 28.4847C68.2133 28.4847 67.2441 28.2438 66.3719 27.7621C65.5135 27.2805 64.8351 26.5992 64.3366 25.7184C63.852 24.8239 63.6097 23.7917 63.6097 22.6219C63.6097 21.4658 63.859 20.4474 64.3574 19.5666C64.8697 18.6721 65.5619 17.9908 66.4342 17.5229C67.3064 17.0412 68.2825 16.8004 69.3624 16.8004C70.4424 16.8004 71.4185 17.0412 72.2907 17.5229C73.163 17.9908 73.8483 18.6652 74.3467 19.546C74.859 20.4268 75.1151 21.4521 75.1151 22.6219C75.1151 23.7917 74.8521 24.8239 74.326 25.7184C73.8137 26.5992 73.1145 27.2805 72.2284 27.7621C71.3423 28.2438 70.3593 28.4847 69.2794 28.4847ZM69.2794 26.8332C69.9578 26.8332 70.5947 26.6749 71.19 26.3584C71.7854 26.0418 72.263 25.567 72.623 24.934C72.9968 24.3009 73.1837 23.5302 73.1837 22.6219C73.1837 21.7136 73.0037 20.9429 72.6438 20.3098C72.2838 19.6767 71.8131 19.2088 71.2316 18.906C70.6501 18.5895 70.0201 18.4312 69.3417 18.4312C68.6494 18.4312 68.0125 18.5895 67.431 18.906C66.8634 19.2088 66.4065 19.6767 66.0604 20.3098C65.7142 20.9429 65.5412 21.7136 65.5412 22.6219C65.5412 23.544 65.7073 24.3215 66.0396 24.9546C66.3857 25.5877 66.8426 26.0625 67.4103 26.379C67.9779 26.6818 68.601 26.8332 69.2794 26.8332Z" stroke="#5C5C5C" mask="url(#path-1-outside-1)"/>
<path d="M78.5761 15.1489C78.2161 15.1489 77.9115 15.0251 77.6623 14.7773C77.4131 14.5296 77.2885 14.2268 77.2885 13.869C77.2885 13.5112 77.4131 13.2084 77.6623 12.9607C77.9115 12.713 78.2161 12.5891 78.5761 12.5891C78.9222 12.5891 79.213 12.713 79.4483 12.9607C79.6975 13.2084 79.8222 13.5112 79.8222 13.869C79.8222 14.2268 79.6975 14.5296 79.4483 14.7773C79.213 15.0251 78.9222 15.1489 78.5761 15.1489ZM79.4899 16.9862V28.2989H77.6V16.9862H79.4899Z" stroke="#5C5C5C" mask="url(#path-1-outside-1)"/>
<path d="M88.2559 16.7798C89.6404 16.7798 90.7618 17.1995 91.6202 18.039C92.4786 18.8648 92.9079 20.0621 92.9079 21.631V28.2989H91.0387V21.8994C91.0387 20.7708 90.7549 19.9107 90.1873 19.3189C89.6196 18.7134 88.8443 18.4106 87.8613 18.4106C86.8644 18.4106 86.0683 18.7203 85.473 19.3396C84.8915 19.9589 84.6007 20.8603 84.6007 22.0439V28.2989H82.7108V16.9862H84.6007V18.5964C84.9745 18.0184 85.4799 17.5711 86.1168 17.2546C86.7675 16.938 87.4805 16.7798 88.2559 16.7798Z" stroke="#5C5C5C" mask="url(#path-1-outside-1)"/>
<path d="M103.243 20.8878C103.769 20.9704 104.247 21.1837 104.676 21.5278C105.119 21.8718 105.465 22.2985 105.714 22.8077C105.977 23.3169 106.109 23.8605 106.109 24.4385C106.109 25.1679 105.922 25.8285 105.548 26.4203C105.174 26.9983 104.627 27.4594 103.908 27.8034C103.201 28.1337 102.364 28.2989 101.395 28.2989H95.995V13.9103H101.187C102.17 13.9103 103.008 14.0754 103.7 14.4057C104.392 14.7223 104.911 15.1558 105.257 15.7063C105.604 16.2568 105.777 16.8761 105.777 17.5642C105.777 18.4175 105.541 19.1262 105.071 19.6905C104.614 20.241 104.004 20.6401 103.243 20.8878ZM97.8848 20.124H101.062C101.948 20.124 102.634 19.9176 103.118 19.5047C103.603 19.0918 103.845 18.5207 103.845 17.7913C103.845 17.0619 103.603 16.4907 103.118 16.0779C102.634 15.665 101.935 15.4586 101.021 15.4586H97.8848V20.124ZM101.228 26.7506C102.17 26.7506 102.904 26.5304 103.43 26.09C103.956 25.6496 104.219 25.0372 104.219 24.2527C104.219 23.4545 103.942 22.8283 103.388 22.3742C102.835 21.9062 102.094 21.6723 101.166 21.6723H97.8848V26.7506H101.228Z" stroke="#5C5C5C" mask="url(#path-1-outside-1)"/>
<path d="M108.025 22.6012C108.025 21.4452 108.261 20.4337 108.732 19.5666C109.202 18.6858 109.846 18.0046 110.663 17.5229C111.494 17.0412 112.414 16.8004 113.425 16.8004C114.422 16.8004 115.287 17.0137 116.021 17.4404C116.755 17.867 117.302 18.4037 117.662 19.0505V16.9862H119.572V28.2989H117.662V26.1932C117.288 26.8538 116.727 27.4043 115.979 27.8447C115.246 28.2713 114.387 28.4847 113.404 28.4847C112.394 28.4847 111.48 28.2369 110.663 27.7415C109.846 27.246 109.202 26.551 108.732 25.6565C108.261 24.7619 108.025 23.7435 108.025 22.6012ZM117.662 22.6219C117.662 21.7686 117.489 21.0254 117.142 20.3924C116.796 19.7593 116.326 19.2776 115.73 18.9473C115.149 18.6033 114.505 18.4312 113.799 18.4312C113.093 18.4312 112.449 18.5964 111.867 18.9267C111.286 19.257 110.822 19.7387 110.476 20.3717C110.13 21.0048 109.957 21.748 109.957 22.6012C109.957 23.4683 110.13 24.2252 110.476 24.872C110.822 25.5051 111.286 25.9937 111.867 26.3377C112.449 26.668 113.093 26.8332 113.799 26.8332C114.505 26.8332 115.149 26.668 115.73 26.3377C116.326 25.9937 116.796 25.5051 117.142 24.872C117.489 24.2252 117.662 23.4752 117.662 22.6219Z" stroke="#5C5C5C" mask="url(#path-1-outside-1)"/>
<path d="M126.795 28.4847C125.923 28.4847 125.141 28.3402 124.448 28.0511C123.756 27.7484 123.209 27.3355 122.808 26.8125C122.406 26.2758 122.185 25.6634 122.143 24.9753H124.095C124.151 25.5395 124.414 26.0005 124.884 26.3584C125.369 26.7162 125.999 26.8951 126.774 26.8951C127.494 26.8951 128.062 26.7368 128.477 26.4203C128.893 26.1038 129.1 25.7047 129.1 25.223C129.1 24.7275 128.879 24.3628 128.436 24.1289C127.993 23.8811 127.307 23.6403 126.38 23.4063C125.535 23.1861 124.843 22.9659 124.303 22.7457C123.777 22.5118 123.32 22.1746 122.932 21.7342C122.558 21.2801 122.371 20.6883 122.371 19.9589C122.371 19.3808 122.545 18.851 122.891 18.3693C123.237 17.8876 123.728 17.5092 124.365 17.2339C125.002 16.9449 125.729 16.8004 126.546 16.8004C127.806 16.8004 128.823 17.1169 129.599 17.75C130.374 18.3831 130.789 19.2501 130.845 20.3511H128.955C128.913 19.7593 128.671 19.2845 128.228 18.9267C127.799 18.5689 127.217 18.39 126.483 18.39C125.805 18.39 125.265 18.5345 124.864 18.8235C124.462 19.1125 124.261 19.4909 124.261 19.9589C124.261 20.3305 124.379 20.6401 124.614 20.8878C124.864 21.1218 125.168 21.3145 125.528 21.4658C125.902 21.6035 126.414 21.7617 127.065 21.9406C127.882 22.1608 128.546 22.381 129.059 22.6012C129.571 22.8077 130.007 23.1242 130.367 23.5508C130.741 23.9775 130.935 24.5349 130.949 25.223C130.949 25.8423 130.776 26.3997 130.429 26.8951C130.083 27.3906 129.592 27.7828 128.955 28.0718C128.332 28.347 127.612 28.4847 126.795 28.4847Z" stroke="#5C5C5C" mask="url(#path-1-outside-1)"/>
<path d="M144 22.209C144 22.5668 143.98 22.9453 143.938 23.3444H134.842C134.911 24.4592 135.292 25.3331 135.984 25.9661C136.69 26.5855 137.542 26.8951 138.538 26.8951C139.355 26.8951 140.034 26.7093 140.574 26.3377C141.127 25.9524 141.515 25.4432 141.737 24.8101H143.772C143.467 25.8973 142.858 26.785 141.944 27.4731C141.031 28.1475 139.895 28.4847 138.538 28.4847C137.458 28.4847 136.489 28.2438 135.631 27.7621C134.786 27.2805 134.122 26.5992 133.637 25.7184C133.153 24.8239 132.91 23.7917 132.91 22.6219C132.91 21.4521 133.146 20.4268 133.616 19.546C134.087 18.6652 134.745 17.9908 135.589 17.5229C136.448 17.0412 137.431 16.8004 138.538 16.8004C139.618 16.8004 140.574 17.0344 141.404 17.5023C142.235 17.9702 142.872 18.617 143.315 19.4428C143.772 20.2548 144 21.1768 144 22.209ZM142.048 21.8168C142.048 21.1011 141.889 20.4887 141.571 19.9795C141.252 19.4565 140.816 19.0643 140.262 18.8028C139.722 18.5276 139.12 18.39 138.455 18.39C137.5 18.39 136.683 18.6927 136.005 19.2983C135.34 19.9038 134.959 20.7433 134.863 21.8168H142.048Z" stroke="#5C5C5C" mask="url(#path-1-outside-1)"/>
<path d="M26.2519 30.6042H35.5243C37.5214 30.6042 39.0906 28.7971 39.0906 26.6888C39.0906 24.5806 37.5214 22.7735 35.5243 22.7735C34.811 22.7735 34.0978 22.7735 33.3845 22.7735C36.2375 16.2982 34.811 1.99219 21.9723 1.99219C13.4132 1.99219 9.13359 7.26282 9.13359 17.9547H7.70707C4.56872 17.9547 2.00098 20.8159 2.00098 24.2794C2.00098 27.743 4.56872 30.6042 7.70707 30.6042H14.8397H26.2519Z" stroke="url(#paint0_linear)" stroke-width="3" stroke-linecap="round" stroke-linejoin="round"/>
<path d="M24.332 15.5359C24.6195 14.8403 24.6693 14.0447 24.4128 13.2767C23.9569 11.9122 22.6779 11.0604 21.3058 11.0585L21.1464 10.5812L21.1463 10.5811C21.008 10.1674 20.5613 9.95852 20.1597 10.0927C19.7591 10.2265 19.5259 10.6615 19.6645 11.0762L19.7689 11.3887L19.6393 11.432L19.5349 11.1196C19.5349 11.1196 19.5349 11.1195 19.5349 11.1195C19.3964 10.7048 18.9486 10.4973 18.5479 10.6311C18.1473 10.765 17.9142 11.2 18.0527 11.6147L18.1571 11.9271L17.874 12.0217L17.8737 12.021L17.3995 12.1794L16.2362 12.568C15.8351 12.702 15.6027 13.1374 15.7412 13.5519C15.8797 13.9665 16.3271 14.1747 16.7283 14.0407L17.0543 13.9318L19.8882 22.4145L19.5622 22.5234C19.161 22.6575 18.9285 23.0928 19.0671 23.5074C19.2056 23.922 19.653 24.1301 20.0542 23.9961L21.9748 23.3545L22.0788 23.6658C22.2173 24.0804 22.6647 24.2886 23.0659 24.1546C23.467 24.0206 23.6995 23.5852 23.561 23.1706L23.457 22.8593L23.5865 22.816L23.6905 23.1273C23.8291 23.542 24.2765 23.7501 24.6776 23.6161C25.0797 23.4818 25.3106 23.046 25.1724 22.6323L25.0662 22.3145C26.8063 21.6131 27.7408 19.6879 27.1425 17.8972C26.7108 16.6049 25.5982 15.7367 24.332 15.5359ZM24.3635 20.9194L21.37 21.9195L20.1117 18.1531L22.305 17.4204C22.3223 17.4146 22.3387 17.4086 22.3501 17.4045L23.105 17.1523C23.623 16.9792 24.1723 17.0153 24.6554 17.2511L24.6556 17.2512C25.1385 17.4865 25.4933 17.891 25.6607 18.3923C25.8283 18.8938 25.7878 19.43 25.5433 19.9089L25.5432 19.9091C25.2991 20.3878 24.8819 20.7462 24.3635 20.9194ZM21.8483 15.9355L19.6196 16.68L18.5363 13.4375L20.7296 12.7048C21.1764 12.5555 21.6496 12.5865 22.0656 12.7895L22.0658 12.7896C22.4816 12.9922 22.7868 13.3404 22.9309 13.7718C23.075 14.2031 23.0403 14.6644 22.8297 15.0764L22.8295 15.0768C22.6247 15.4786 22.2789 15.7819 21.8483 15.9355Z" fill="url(#paint1_linear)" stroke="url(#paint2_linear)"/>
<defs>
<linearGradient id="paint0_linear" x1="22.4003" y1="-2.51155" x2="23.646" y2="48.1948" gradientUnits="userSpaceOnUse">
<stop stop-color="#FD749B"/>
<stop offset="1" stop-color="#281AC8"/>
</linearGradient>
<linearGradient id="paint1_linear" x1="19.5178" y1="8.63399" x2="28.062" y2="30.5052" gradientUnits="userSpaceOnUse">
<stop stop-color="#FD749B"/>
<stop offset="1" stop-color="#281AC8"/>
</linearGradient>
<linearGradient id="paint2_linear" x1="19.5178" y1="8.63399" x2="28.062" y2="30.5052" gradientUnits="userSpaceOnUse">
<stop stop-color="#FD749B"/>
<stop offset="1" stop-color="#281AC8"/>
</linearGradient>
</defs>
</svg>
